<svg xmlns="http://www.w3.org/2000/svg" version="1.1" xmlns:xlink="http://www.w3.org/1999/xlink" xmlns:svgjs="http://svgjs.com/svgjs" width="1920" height="3000" preserveAspectRatio="none" viewBox="0 0 1920 3000"><g mask="url(&quot;#SvgjsMask1139&quot;)" fill="none"><rect width="1920" height="3000" x="0" y="0" fill="rgba(255, 255, 255, 1)"></rect><path d="M 0,246 C 128,215 384,94.8 640,91 C 896,87.2 1024,225.8 1280,227 C 1536,228.2 1792,123 1920,97L1920 3000L0 3000z" fill="rgba(255, 255, 255, 1)"></path><path d="M 0,400 C 128,385.8 384,313.2 640,329 C 896,344.8 1024,476.2 1280,479 C 1536,481.8 1792,370.2 1920,343L1920 3000L0 3000z" fill="rgba(255, 255, 255, 1)"></path><path d="M 0,744 C 96,699 288,529.6 480,519 C 672,508.4 768,686.4 960,691 C 1152,695.6 1248,545.8 1440,542 C 1632,538.2 1824,646 1920,672L1920 3000L0 3000z" fill="rgba(51, 153, 255, 1)"></path><path d="M 0,806 C 128,823.8 384,885.4 640,895 C 896,904.6 1024,848.2 1280,854 C 1536,859.8 1792,910 1920,924L1920 3000L0 3000z" fill="rgba(51, 153, 255, 1)"></path><path d="M 0,1055 C 128,1076.2 384,1155.6 640,1161 C 896,1166.4 1024,1087.6 1280,1082 C 1536,1076.4 1792,1122.8 1920,1133L1920 3000L0 3000z" fill="rgba(51, 153, 255, 1)"></path><path d="M 0,1452 C 128,1428 384,1337.6 640,1332 C 896,1326.4 1024,1424.6 1280,1424 C 1536,1423.4 1792,1348 1920,1329L1920 3000L0 3000z" fill="rgba(51, 153, 255, 1)"></path><path d="M 0,1654 C 128,1639.2 384,1574.6 640,1580 C 896,1585.4 1024,1676.6 1280,1681 C 1536,1685.4 1792,1617.8 1920,1602L1920 3000L0 3000z" fill="rgba(51, 153, 255, 1)"></path><path d="M 0,1900 C 128,1888.8 384,1845.8 640,1844 C 896,1842.2 1024,1896.2 1280,1891 C 1536,1885.8 1792,1832.6 1920,1818L1920 3000L0 3000z" fill="rgba(51, 153, 255, 1)"></path><path d="M 0,2095 C 384,2125.6 1536,2217.4 1920,2248L1920 3000L0 3000z" fill="rgba(51, 153, 255, 1)"></path><path d="M 0,2462 C 96,2429.6 288,2304.8 480,2300 C 672,2295.2 768,2429.6 960,2438 C 1152,2446.4 1248,2347.8 1440,2342 C 1632,2336.2 1824,2395.6 1920,2409L1920 3000L0 3000z" fill="rgba(36, 37, 42, 1)"></path><path d="M 0,2597 C 76.8,2613 230.4,2688.4 384,2677 C 537.6,2665.6 614.4,2532 768,2540 C 921.6,2548 998.4,2713.8 1152,2717 C 1305.6,2720.2 1382.4,2568.8 1536,2556 C 1689.6,2543.2 1843.2,2633.6 1920,2653L1920 3000L0 3000z" fill="rgba(36, 37, 42, 1)"></path><path d="M 0,2815 C 128,2837.6 384,2922.2 640,2928 C 896,2933.8 1024,2830.2 1280,2844 C 1536,2857.8 1792,2966.4 1920,2997L1920 3000L0 3000z" fill="rgba(36, 37, 42, 1)"></path></g><defs><mask id="SvgjsMask1139"><rect width="1920" height="3000" fill="#ffffff"></rect></mask></defs></svg>